<svg width="32" height="32" viewBox="0 0 32 32" fill="none" xmlns="http://www.w3.org/2000/svg">
<path d="M28 10.6667C28 12.8759 26.2091 14.6667 24 14.6667C21.7909 14.6667 20 12.8759 20 10.6667C20 8.45761 21.7909 6.66675 24 6.66675C26.2091 6.66675 28 8.45761 28 10.6667Z" fill="#EF4444"/>
<path d="M25.8667 19.8667C26.9333 21.8667 28 22.6667 28 22.6667H4C4 22.6667 8 20.0001 8 10.6667C8 6.26675 11.6 2.66675 16 2.66675C16.9333 2.66675 17.7333 2.80008 18.5333 3.06675M13.7333 28.0001C13.9565 28.406 14.2846 28.7445 14.6833 28.9803C15.082 29.2161 15.5368 29.3405 16 29.3405C16.4632 29.3405 16.918 29.2161 17.3167 28.9803C17.7154 28.7445 18.0435 28.406 18.2667 28.0001M28 10.6667C28 12.8759 26.2091 14.6667 24 14.6667C21.7909 14.6667 20 12.8759 20 10.6667C20 8.45761 21.7909 6.66675 24 6.66675C26.2091 6.66675 28 8.45761 28 10.6667Z" stroke="#14B8A6" stroke-width="2" stroke-linecap="round" stroke-linejoin="round"/>
<circle cx="24.0003" cy="10.6666" r="5.33333" fill="#EF4444"/>
</svg>
